<svg width="240" height="80" viewBox="0 0 240 80" fill="none" xmlns="http://www.w3.org/2000/svg">
<path d="M42.8971 47.7655C43.1589 47.3372 43.718 47.2021 44.1449 47.4627C44.5731 47.7245 44.7081 48.2836 44.4476 48.7119C43.5393 50.1956 42.3965 51.978 41.0056 53.9132C39.6145 55.8484 37.9876 57.92 36.1233 59.9669C32.9307 63.4704 27.9216 67.5236 22.5907 70.4761C18.1857 72.9159 13.5381 74.6151 9.46453 74.6601C8.96403 74.6641 8.55491 74.2605 8.55081 73.76C8.54672 73.2595 8.95039 72.8504 9.45089 72.8463C13.1903 72.8053 17.5407 71.1989 21.7084 68.89C26.862 66.0357 31.7007 62.1231 34.7787 58.7436C36.6075 56.7376 38.188 54.7247 39.5327 52.8536C40.8773 50.9825 41.9984 49.2315 42.8971 47.7655Z" fill="#8B7452"/>
<path d="M41.2528 53.56C40.9255 53.9391 40.3513 53.98 39.9723 53.6527C39.5931 53.3253 39.5521 52.7512 39.8795 52.3721C51.376 39.0605 59.7372 42.5476 68.4871 46.1971C72.9724 48.0682 77.5669 49.9841 82.6892 49.4387C83.1884 49.3855 83.6357 49.747 83.6889 50.246C83.712 50.4698 83.6535 50.6824 83.5361 50.8543C68.6371 72.6731 57.3192 66.8962 48.0116 62.1435C43.6461 59.9151 39.7608 57.9308 36.3883 59.5741C35.9368 59.7937 35.3913 59.6055 35.1717 59.1542C34.9523 58.7027 35.1404 58.1572 35.5919 57.9376C39.78 55.8975 44.0457 58.074 48.8367 60.5206C57.2811 64.8315 67.5024 70.0451 80.9668 51.3507C76.18 51.3739 71.9401 49.6064 67.7901 47.8759C59.6595 44.4855 51.8888 41.2439 41.2528 53.56Z" fill="#8B7452"/>
<path d="M46.236 40.6099C47.3284 41.248 48.0593 42.2695 48.358 43.4055C48.6567 44.5415 48.5216 45.7908 47.8848 46.8831C47.2465 47.9755 46.2251 48.7064 45.0891 49.0051C44.0308 49.2833 42.8743 49.1851 41.8392 48.656H41.8243L41.6115 48.5319C40.5191 47.8936 39.7881 46.8721 39.4895 45.7361C39.2112 44.6779 39.3095 43.5215 39.8385 42.4864V42.4713L39.9627 42.2587C40.6009 41.1663 41.6224 40.4352 42.7584 40.1365C43.8944 39.8379 45.1449 39.9716 46.2373 40.6099H46.236ZM46.6001 43.8679C46.4201 43.1832 45.9783 42.5681 45.3181 42.1823C44.6568 41.7963 43.9025 41.7144 43.2193 41.8931C42.5388 42.0717 41.9237 42.5109 41.5379 43.1668L41.5324 43.1751C41.1464 43.8365 41.0647 44.5892 41.2432 45.2725C41.4233 45.9557 41.8652 46.5721 42.5252 46.9581C43.1852 47.344 43.9395 47.4259 44.6227 47.2472C45.3059 47.0672 45.9223 46.6267 46.3083 45.9653C46.6943 45.3039 46.776 44.5497 46.5973 43.8665L46.6001 43.8679Z" fill="#8B7452"/>
<path d="M52.9076 37.3044C53.9687 37.9249 54.6805 38.9177 54.9696 40.0224C55.2396 41.0493 55.1456 42.1704 54.6341 43.1755V43.1904L54.51 43.4032C53.8896 44.4656 52.8967 45.1761 51.7921 45.4652C50.6875 45.7557 49.4723 45.6248 48.4113 45.0056C47.3489 44.3851 46.6384 43.3909 46.3493 42.2876C46.0588 41.1829 46.1897 39.9679 46.8103 38.9069L46.8212 38.8864L46.8239 38.8809L46.828 38.8741C47.4485 37.8295 48.4332 37.1299 49.5269 36.8435C50.6315 36.5531 51.8467 36.6853 52.9076 37.3044ZM53.2131 40.4848C53.0413 39.8329 52.6199 39.2451 51.9899 38.8769V38.8755L51.9667 38.8632L51.9639 38.8619C51.3393 38.5073 50.6315 38.4323 49.9892 38.6013C49.3373 38.7732 48.7495 39.1947 48.3813 39.8247C48.0131 40.4561 47.9353 41.1748 48.1059 41.8267C48.2763 42.4759 48.6936 43.0595 49.3183 43.4291L49.3291 43.4359C49.9592 43.8041 50.6779 43.8819 51.3297 43.7113C51.9816 43.5396 52.5695 43.1181 52.9376 42.4881C53.3059 41.8567 53.3836 41.1367 53.2131 40.4848Z" fill="#8B7452"/>
<path d="M83.3339 51.0647C76.6528 56.146 70.4177 54.7755 63.7257 53.304C56.0151 51.6088 47.6621 49.7719 37.4067 58.4944L36.2324 57.1075C47.1739 47.8025 55.9796 49.7391 64.1091 51.5256C70.3823 52.9044 76.2287 54.1904 82.2375 49.6204L83.3339 51.0647Z" fill="#8B7452"/>
<path d="M53.3121 50.058C55.1068 50.1139 59.1953 49.9065 62.6565 48.9205C64.7459 48.3247 66.5692 47.4613 67.3875 46.2285L68.9027 47.2309C67.8061 48.8824 65.6132 49.968 63.1544 50.6689C59.4968 51.7108 55.1655 51.9291 53.2631 51.8704L53.3121 50.0565V50.058Z" fill="#8B7452"/>
<path d="M45.5964 51.4614C49.6617 49.8998 54.6272 53.2165 59.5436 56.5005C64.5976 59.8772 69.5972 63.2171 72.5865 60.4881L73.8099 61.8328C69.7731 65.5177 64.1831 61.7837 58.5331 58.0088C54.004 54.9826 49.4327 51.9292 46.2428 53.1538L45.5964 51.4614Z" fill="#8B7452"/>
<path d="M25.9188 66.3797C26.1669 65.9788 26.4029 65.5601 26.6279 65.1264C29.6691 59.2487 29.6036 51.928 27.8403 45.4896C26.0824 39.0677 22.6635 33.5649 18.9772 31.2848C18.7891 31.1688 18.5927 31.0571 18.3867 30.9507L19.2187 29.336C19.4477 29.4545 19.6864 29.5909 19.9305 29.7409C23.9891 32.2531 27.7161 38.1676 29.59 45.0124C31.4597 51.8407 31.5115 59.64 28.2427 65.9583C28.0053 66.4152 27.7461 66.8748 27.4625 67.3316L25.9188 66.3784V66.3797Z" fill="#8B7452"/>
<path d="M29.3868 60.184C29.8504 60.3723 30.0727 60.9015 29.8845 61.3651C29.6963 61.8288 29.1672 62.0511 28.7035 61.8628C15.5841 56.5047 17.1716 50.0091 18.8421 43.1712C19.8555 39.024 20.9028 34.7363 18.0593 30.6628C17.7729 30.2523 17.8725 29.6863 18.2831 29.4C18.5435 29.2185 18.8653 29.1913 19.1395 29.3017C25.0527 31.6707 29.1944 34.3953 32.0024 37.2701C35.1936 40.5364 36.6733 43.9963 37.0701 47.3552C37.4656 50.6977 36.7824 53.9231 35.6491 56.7515C34.0031 60.8605 31.3888 64.1457 29.7932 65.7045C29.4331 66.0537 28.8589 66.0455 28.5085 65.6868C28.1593 65.3268 28.1661 64.7527 28.5263 64.4021C30.0032 62.9593 32.4265 59.91 33.9621 56.0751C34.9945 53.4989 35.6177 50.5764 35.2632 47.568C34.91 44.5759 33.5789 41.4815 30.7 38.5357C28.4499 36.2324 25.2559 34.0176 20.8564 32.0088C22.4725 35.9405 21.526 39.8217 20.6028 43.5967C19.1217 49.6585 17.7143 55.4164 29.3827 60.1827L29.3868 60.184Z" fill="#8B7452"/>
<path d="M21.3697 40.1695C21.1133 42.8084 22.9299 44.288 24.9987 45.9736C27.3103 47.8569 29.8973 49.964 30.8547 54.0431L29.0831 54.4563C28.2663 50.9773 25.9356 49.0789 23.8531 47.3824C21.382 45.3695 19.2123 43.6021 19.5627 39.9991L21.3697 40.1695Z" fill="#8B7452"/>
<path d="M33.0555 39.0745C32.0749 40.0523 31.4231 41.3779 31.0016 42.7716C30.4043 44.7436 30.2733 46.8248 30.3252 48.2989L28.5115 48.3631C28.4541 46.7293 28.5987 44.4245 29.2588 42.2452C29.7579 40.5992 30.5516 39.0077 31.7749 37.7871L33.0555 39.0745Z" fill="#8B7452"/>
<path d="M60.1551 5.25324C60.1455 4.75273 60.5437 4.33814 61.0443 4.3286C61.5447 4.31905 61.9593 4.71728 61.9688 5.21777C62.1025 10.981 60.852 16.4047 58.5459 21.8407V21.8433C56.2588 27.2329 52.938 32.6225 48.904 38.3612C48.6149 38.7717 48.0489 38.8699 47.6385 38.5821C47.228 38.2931 47.1297 37.7271 47.4176 37.3165C51.3847 31.672 54.6455 26.386 56.8752 21.1328C59.0845 15.9273 60.2819 10.7437 60.1551 5.25324Z" fill="#8B7452"/>
<path d="M61.9358 4.98725C61.9863 5.15227 62.1758 5.74959 62.3735 6.37419C63.0418 8.48937 63.8232 10.9591 64.4 13.5953C66.4429 22.9316 65.8962 33.9861 49.0974 37.6601C48.6746 37.7515 48.2572 37.5333 48.0814 37.1569C41.5994 25.1572 46.0507 20.6732 52.2312 14.4504C54.8551 11.8074 57.8117 8.83168 60.2869 4.76087C60.5488 4.33264 61.108 4.19763 61.5348 4.45811C61.738 4.58221 61.8758 4.77313 61.9358 4.98588V4.98725ZM62.6204 13.9799C62.1022 11.6124 61.3997 9.34036 60.7739 7.35609C58.4432 10.7723 55.8534 13.3799 53.5172 15.7309C47.99 21.2964 43.9819 25.3332 49.3796 35.7291C63.9977 32.2433 64.4519 22.352 62.6189 13.9799H62.6204Z" fill="#8B7452"/>
<path d="M53.9943 15.2523C50.3025 18.7612 51.1659 21.5092 52.0864 24.4357C52.9551 27.1988 53.8661 30.1008 51.9568 33.8567L50.3353 33.0316C51.9091 29.9359 51.1113 27.3951 50.3517 24.9759C49.258 21.4941 48.2311 18.2265 52.7437 13.9361L53.9943 15.2523Z" fill="#8B7452"/>
<path d="M65.0301 17.3783C65.0777 20.6567 62.7117 22.0696 60.1737 23.5833C58.304 24.6989 56.3252 25.8785 55.5343 27.9351L53.8417 27.2873C54.8605 24.6389 57.1135 23.2943 59.2423 22.026C61.3152 20.7891 63.2491 19.6353 63.2163 17.4001L65.0301 17.3783Z" fill="#8B7452"/>
<path d="M46.9249 33.4475C47.9273 34.0707 48.5996 35.0335 48.8805 36.0999C49.1711 37.2045 49.0401 38.4197 48.4211 39.4807L48.3609 39.5829L48.3556 39.5884C47.7323 40.5908 46.7695 41.2631 45.7031 41.5427C44.5984 41.8332 43.3833 41.7023 42.3223 41.0817L42.22 41.0217L42.2145 41.0163C41.2121 40.3931 40.5399 39.4303 40.2589 38.3637C39.9889 37.3368 40.0829 36.2159 40.5944 35.2108V35.1957L40.7185 34.9831C41.3391 33.9207 42.3319 33.2101 43.4364 32.9211C44.4633 32.6509 45.5844 32.7451 46.5895 33.2565H46.7353L46.9249 33.446V33.4475ZM47.1227 36.5623C46.9523 35.9104 46.5308 35.324 45.9021 34.9557H45.8995C45.2693 34.5861 44.5507 34.5071 43.8988 34.6789C43.2496 34.8493 42.6645 35.268 42.2949 35.894L42.2896 35.9021C41.9213 36.5323 41.8436 37.2523 42.014 37.9028C42.1859 38.5547 42.6073 39.1425 43.2373 39.5107L43.2456 39.5148C43.8743 39.8789 44.5903 39.9567 45.238 39.7861C45.8899 39.6144 46.4776 39.1929 46.8459 38.5629L46.854 38.5479C47.2155 37.9205 47.2904 37.2073 47.1213 36.5609L47.1227 36.5623Z" fill="#8B7452"/>
<path d="M46.5785 45.132C46.3989 44.4496 45.958 43.8343 45.2991 43.4491C44.6393 43.0639 43.8872 42.982 43.2048 43.1615C42.5251 43.3401 41.9124 43.7785 41.5272 44.4331L41.5219 44.4408C41.1367 45.1007 41.0548 45.8527 41.2335 46.5343C41.4129 47.2167 41.8531 47.832 42.5128 48.2172C43.1725 48.6024 43.9247 48.6843 44.6071 48.5056C45.2895 48.3261 45.9048 47.886 46.2892 47.2263C46.6744 46.5656 46.7572 45.8135 46.5785 45.132Z" fill="#E63200"/>
<path d="M53.1775 41.7559C53.0067 41.1048 52.5857 40.5183 51.9573 40.1505L51.9339 40.1375H51.9321L51.9304 40.1357C51.3072 39.7809 50.6004 39.7077 49.9589 39.876C49.308 40.0468 48.7215 40.4677 48.3545 41.0969C47.9867 41.7271 47.9092 42.4444 48.08 43.0945C48.2499 43.742 48.6665 44.3251 49.2896 44.6929L49.3009 44.6989C49.9303 45.0668 50.6475 45.1444 51.2976 44.9735C51.9487 44.8027 52.5352 44.3817 52.9021 43.7533C53.2699 43.1233 53.3483 42.406 53.1775 41.7559Z" fill="#D40E00"/>
<path d="M68.1571 49.3132C66.9588 50.5107 65.1189 51.3473 63.0988 51.9233C62.6465 52.0524 62.1837 52.1683 61.7175 52.2728C62.5027 52.4349 63.2809 52.6067 64.0531 52.7765C69.372 53.9461 74.3832 55.0469 79.4468 52.5561C75.4081 52.2807 71.7435 50.8069 68.1571 49.3132Z" fill="#6A9631"/>
<path d="M54.6165 51.3085C56.6891 51.2519 59.8448 50.9617 62.6015 50.1756C64.036 49.7668 65.3449 49.2308 66.288 48.5363C58.7092 45.4311 51.2795 43.2592 41.3451 54.6857C46.1315 51.9047 50.5064 51.1629 54.6165 51.3085Z" fill="#6A9631"/>
<path d="M68.1415 64.3688C65.1513 63.6977 61.83 61.4789 58.4876 59.246C54.2172 56.3927 49.9084 53.5149 46.7605 54.2373C44.3211 55.0419 41.7763 56.3508 39.1016 58.3676C42.1763 58.3667 45.3556 59.9895 48.8095 61.7525C54.3488 64.5807 60.6543 67.7939 68.1415 64.3688Z" fill="#6A9631"/>
<path d="M51.7631 53.2185C54.2591 54.2427 56.8849 55.9961 59.4969 57.7417C64.0715 60.7983 68.6016 63.8241 71.6301 62.3295C74.0888 60.5768 76.6684 58.0721 79.3832 54.5947C74.128 56.8493 69.0461 55.7329 63.6707 54.5512C59.9039 53.7232 55.9847 52.8612 51.7631 53.2185Z" fill="#6A9631"/>
<path d="M29.0743 55.6125C28.2401 52.1961 25.9368 50.3189 23.8748 48.6395C22.5605 47.5684 21.3316 46.5679 20.5228 45.3216C19.1328 51.0457 18.1061 56.4815 28.5156 61.0421C28.8921 59.2747 29.0691 57.4488 29.0743 55.6125Z" fill="#6A9631"/>
<path d="M21.3897 41.5015C21.1675 44.0977 22.9681 45.5654 25.0179 47.2343C26.2676 48.2523 27.5985 49.3364 28.7071 50.7631C28.5013 49.4027 28.2137 48.0588 27.8556 46.7505C26.4699 41.6871 24.0488 37.1969 21.28 34.4124C21.9824 36.8004 21.8237 39.1684 21.3897 41.5015Z" fill="#6A9631"/>
<path d="M29.0321 44.3912C29.1027 44.0975 29.182 43.8037 29.27 43.5127C29.6421 42.2829 30.1799 41.0837 30.9389 40.0484C30.864 39.9691 30.7891 39.8907 30.7124 39.8121C29.06 38.1205 26.8987 36.4777 24.1237 34.9291C26.1064 37.4643 27.8259 40.7543 29.0321 44.3912Z" fill="#6A9631"/>
<path d="M32.1609 41.4691C31.6597 42.2439 31.2851 43.1259 31.0096 44.0375C30.4213 45.9819 30.2853 48.0308 30.3324 49.4993C31.2519 54.6125 31.0968 60.0351 29.2963 64.8372C30.7508 63.2161 32.6751 60.5449 33.9684 57.316C34.9985 54.7459 35.6217 51.8271 35.2661 48.8256C34.9785 46.3967 34.046 43.8989 32.1609 41.4691Z" fill="#6A9631"/>
<path d="M50.3221 34.2849C51.8717 31.2093 51.0787 28.6828 50.3221 26.2765C49.8228 24.6851 49.3365 23.1391 49.3896 21.5189C46.5633 25.2255 45.5419 29.258 48.9905 36.2843C49.4455 35.6132 49.8899 34.9472 50.3221 34.2849Z" fill="#6A9631"/>
<path d="M58.1472 23.9673C58.4967 23.7503 58.8479 23.5403 59.1964 23.3328C61.2305 22.1196 63.1313 20.9859 63.1628 18.8271C63.0285 17.6375 62.8203 16.4556 62.5684 15.3035C62.3025 14.0885 61.9879 12.8989 61.6603 11.7607C61.187 15.6295 60.0976 19.3865 58.501 23.1489L58.4992 23.1524H58.501C58.3859 23.4243 58.2675 23.6955 58.1472 23.9673Z" fill="#6A9631"/>
<path d="M53.8391 28.5033C54.0621 27.9439 54.3401 27.4427 54.6617 26.9895C55.4661 25.4652 56.1921 23.9523 56.8336 22.4419H56.8353C58.6236 18.2272 59.7479 14.0264 60.0408 9.66534C57.9003 12.6059 55.5881 14.9337 53.4843 17.0524L53.3945 17.1431C50.3712 20.3772 51.1879 22.9779 52.0551 25.738C52.476 27.0775 52.9065 28.4501 53.0207 29.9379C53.3013 29.4585 53.5733 28.9801 53.8391 28.5033Z" fill="#6A9631"/>
<path d="M63.2977 22.6719C62.4227 23.5164 61.2923 24.1909 60.1253 24.8864C58.6787 25.7492 57.1665 26.6512 56.1921 27.9699C54.694 30.7945 52.9405 33.6469 50.9779 36.5779C60.0992 33.904 62.9919 28.4588 63.2977 22.6719Z" fill="#6A9631"/>
<path d="M47.0992 37.8416C46.9284 37.1915 46.5092 36.6057 45.8808 36.238L45.8781 36.2363C45.2489 35.8685 44.5317 35.7909 43.8807 35.9608C43.2323 36.1308 42.6484 36.5483 42.2805 37.1732L42.2753 37.1819C41.9076 37.8111 41.83 38.5292 41.9999 39.1793C42.1708 39.8304 42.5917 40.4169 43.2209 40.7848L43.2288 40.79C43.8563 41.1533 44.57 41.2301 45.2184 41.0601C45.8695 40.8893 46.456 40.4684 46.8237 39.8392L46.8325 39.8243C47.1924 39.1985 47.2683 38.4873 47.0992 37.8416Z" fill="#D40E00"/>
<path d="M42.8813 47.7125C43.1419 47.2855 43.6997 47.1504 44.1276 47.4111C44.5547 47.6716 44.6897 48.2293 44.4292 48.6573C43.5219 50.138 42.3819 51.9168 40.9936 53.8489C39.6053 55.7811 37.9816 57.8484 36.12 59.8912C32.9347 63.3877 27.9339 67.4333 22.6132 70.38C18.2164 72.8151 13.5781 74.5111 9.51342 74.5563C9.01317 74.5599 8.6053 74.158 8.60094 73.6577C8.59746 73.1575 8.99922 72.7496 9.49948 72.7453C13.2313 72.7035 17.5741 71.1008 21.7331 68.7964C26.8759 65.9475 31.7049 62.0421 34.7779 58.6693C36.6029 56.6665 38.1812 54.6585 39.5233 52.79C40.8655 50.9224 41.9845 49.1767 42.8813 47.7125Z" fill="#291501"/>
<path d="M41.2411 53.4973C40.9143 53.8755 40.3416 53.9165 39.9633 53.5896C39.5852 53.262 39.5441 52.6903 39.8711 52.312C51.3445 39.0265 59.6903 42.5065 68.4229 46.1485C72.8991 48.0153 77.4849 49.9275 82.5981 49.3837C83.0957 49.3305 83.5429 49.6913 83.596 50.1899C83.6196 50.4129 83.5603 50.6256 83.4435 50.7964C68.5736 72.5732 57.2779 66.8063 47.9875 62.0635C43.6308 59.8393 39.7525 57.8592 36.3867 59.4995C35.9361 59.7191 35.3923 59.5317 35.1727 59.0803C34.9531 58.6297 35.1404 58.0859 35.5919 57.8663C39.7716 55.8295 44.0291 58.0031 48.8119 60.4441C57.2395 64.7469 67.4416 69.9508 80.8795 51.2923C76.1019 51.3159 71.8707 49.5519 67.7283 47.8236C59.6127 44.4396 51.8571 41.2053 41.2411 53.4973Z" fill="#291501"/>
<path d="M46.214 40.5704C47.3043 41.2075 48.0337 42.2272 48.3319 43.3609C48.6299 44.4957 48.4956 45.742 47.8595 46.8323C47.2224 47.9225 46.2027 48.652 45.0697 48.9501C44.0135 49.2272 42.8596 49.1305 41.8259 48.6015H41.8111L41.5984 48.4768C40.5081 47.8397 39.7787 46.82 39.4807 45.6863C39.2035 44.6299 39.3003 43.476 39.8292 42.4424V42.4284L39.9539 42.2159C40.5901 41.1256 41.6097 40.3961 42.7436 40.098C43.8775 39.8 45.1237 39.9341 46.214 40.5704ZM46.5775 43.822C46.3979 43.1396 45.9569 42.5243 45.298 42.1391C44.6383 41.7539 43.8861 41.672 43.2037 41.8515C42.524 42.0301 41.9113 42.4685 41.5261 43.1231L41.5209 43.1309C41.1357 43.7907 41.0537 44.5428 41.2324 45.2243C41.412 45.9067 41.8529 46.522 42.5119 46.9072C43.1716 47.2924 43.9236 47.3744 44.606 47.1957C45.2884 47.0161 45.9037 46.576 46.2881 45.9163C46.6733 45.2557 46.7561 44.5036 46.5775 43.822Z" fill="#291501"/>
<path d="M52.8729 37.2716C53.9327 37.8904 54.6421 38.8821 54.9315 39.9837C55.2008 41.0079 55.1075 42.1277 54.5959 43.1308V43.1465L54.4713 43.3592C53.8525 44.4189 52.8608 45.1284 51.7591 45.4177C50.6567 45.7071 49.4444 45.5772 48.3855 44.9584C47.3256 44.3388 46.6155 43.3479 46.3261 42.2453C46.0367 41.1429 46.1665 39.9307 46.7853 38.8708L46.7967 38.8508L46.7993 38.8456L46.8036 38.8385C47.4233 37.7963 48.4064 37.0981 49.4976 36.8115C50.6 36.5221 51.8132 36.6529 52.8729 37.2716ZM53.178 40.4457C53.0072 39.7947 52.5863 39.2081 51.9569 38.8403L51.9335 38.8272H51.9317L51.93 38.8255C51.3068 38.4708 50.6 38.3976 49.9595 38.5659C49.3084 38.7367 48.7219 39.1576 48.3549 39.7868C47.9872 40.4169 47.9096 41.1341 48.0804 41.7843C48.2504 42.4319 48.6669 43.0149 49.2901 43.3827L49.3015 43.3897C49.9307 43.7575 50.648 43.8351 51.2989 43.6643C51.95 43.4933 52.5365 43.0724 52.9035 42.4441C53.2712 41.814 53.3488 41.0959 53.178 40.4457Z" fill="#291501"/>
<path d="M83.2395 51.0053C76.5713 56.0776 70.3479 54.7093 63.6695 53.2408C55.9739 51.5491 47.6369 49.7163 37.4017 58.4211L36.2305 57.0363C47.1507 47.7501 55.9399 49.6823 64.0529 51.4655C70.3148 52.8425 76.1496 54.1245 82.1465 49.5639L83.2395 51.0053Z" fill="#291501"/>
<path d="M53.2763 50.0011C55.0672 50.0569 59.1485 49.8503 62.6024 48.8664C64.6871 48.272 66.5076 47.4092 67.3243 46.1804L68.8364 47.1808C67.7417 48.8289 65.5533 49.9131 63.0992 50.6129C59.4492 51.6535 55.1256 51.8713 53.2265 51.8121L53.2763 50.0011Z" fill="#291501"/>
<path d="M45.5755 51.402C49.6333 49.8429 54.5879 53.1529 59.4955 56.4316C64.5389 59.8017 69.5292 63.1353 72.5125 60.4109L73.7335 61.7531C69.7044 65.4309 64.1259 61.7043 58.4871 57.9367C53.9673 54.9169 49.4041 51.8683 46.2213 53.0911L45.5755 51.402Z" fill="#291501"/>
<path d="M25.9375 66.2911C26.1849 65.8911 26.4211 65.4736 26.6451 65.0404C29.6807 59.1743 29.6144 51.8673 27.8556 45.4416C26.1013 39.0316 22.6884 33.5401 19.0105 31.2645C18.8232 31.1487 18.6263 31.0371 18.4205 30.9308L19.2511 29.3193C19.4804 29.4379 19.7173 29.5729 19.9615 29.7245C24.0123 32.2311 27.7319 38.1348 29.6013 44.9667C31.4672 51.782 31.5187 59.5655 28.2557 65.8719C28.0195 66.3285 27.7597 66.7861 27.4775 67.2428L25.9375 66.2911Z" fill="#291501"/>
<path d="M29.3985 60.1073C29.8613 60.2955 30.0836 60.8228 29.8953 61.2856C29.7071 61.7484 29.1789 61.9707 28.7169 61.7824C15.6241 56.4339 17.2077 49.9523 18.8749 43.1275C19.8859 38.9885 20.9317 34.7085 18.094 30.6437C17.8081 30.2341 17.9075 29.6693 18.318 29.3835C18.5777 29.2023 18.8993 29.1761 19.1729 29.2851C25.074 31.6485 29.2085 34.3687 32.0113 37.2385C35.1968 40.4989 36.6731 43.9509 37.0696 47.3037C37.4644 50.6399 36.782 53.8585 35.6508 56.6813C34.0071 60.7827 31.3987 64.0613 29.8064 65.6171C29.4473 65.9656 28.8739 65.9579 28.5252 65.5996C28.1767 65.2405 28.1845 64.6671 28.5427 64.3185C30.0164 62.8787 32.4349 59.8345 33.9688 56.0076C34.9989 53.4375 35.622 50.5188 35.2665 47.5172C34.9135 44.5315 33.5844 41.4428 30.7119 38.5031C28.4651 36.204 25.2788 33.9939 20.8872 31.9893C22.5004 35.9139 21.5548 39.7877 20.6345 43.5544C19.1564 49.6055 17.7533 55.3505 29.3985 60.1073Z" fill="#291501"/>
<path d="M21.3943 40.1321C21.1389 42.7659 22.9516 44.2432 25.0172 45.9252C27.3249 47.8051 29.9064 49.908 30.8624 53.9789L29.0941 54.3912C28.2784 50.9191 25.9532 49.0244 23.8737 47.3309C21.4073 45.3221 19.2424 43.5581 19.5911 39.9623L21.3943 40.1321Z" fill="#291501"/>
<path d="M33.0585 39.0389C32.0799 40.0151 31.4297 41.338 31.0088 42.7281C30.4127 44.6969 30.2811 46.7737 30.3333 48.2448L28.5232 48.3085C28.4656 46.6779 28.6112 44.3779 29.2701 42.2017C29.7677 40.558 30.5599 38.9709 31.7817 37.7527L33.0585 39.0389Z" fill="#291501"/>
<path d="M60.1077 5.28347C60.0981 4.78321 60.4955 4.37011 60.9949 4.36052C61.4952 4.35093 61.9083 4.74835 61.9179 5.24773C62.0512 10.9998 60.8032 16.4137 58.5015 21.838L58.4997 21.8415H58.5015C56.2189 27.2215 52.9037 32.5996 48.8781 38.3272C48.5897 38.7369 48.024 38.8353 47.6144 38.5477C47.2048 38.2593 47.1064 37.6936 47.394 37.284C51.3541 31.6496 54.6084 26.3743 56.8325 21.1321H56.8343C59.0383 15.9369 60.2349 10.7627 60.1077 5.28347Z" fill="#291501"/>
<path d="M61.8835 5.01759C61.934 5.18143 62.1231 5.77929 62.32 6.40156C62.9876 8.51327 63.7668 10.9779 64.342 13.6091C66.3805 22.9273 65.8349 33.96 49.0695 37.6283C48.6476 37.7197 48.2311 37.5009 48.0551 37.1263C41.5857 25.1497 46.0279 20.6753 52.1973 14.464C54.8172 11.8268 57.7672 8.85664 60.238 4.7936C60.4985 4.36656 61.0564 4.23147 61.4843 4.49205C61.6873 4.61581 61.8233 4.80581 61.8835 5.01759ZM62.5676 13.9925C62.0508 11.6298 61.35 9.36212 60.7252 7.38203C58.3991 10.7905 55.8141 13.3947 53.4828 15.7408C47.9661 21.2951 43.9667 25.324 49.3536 35.6996C63.9437 32.2204 64.396 22.3496 62.5676 13.9925Z" fill="#291501"/>
<path d="M53.9589 15.2625C50.2749 18.7652 51.136 21.5069 52.0537 24.4275C52.92 27.1859 53.8299 30.0811 51.9239 33.8303L50.3055 33.0067C51.876 29.9163 51.0803 27.3811 50.3212 24.9669C49.2292 21.4921 48.2051 18.2309 52.7092 13.9483L53.9589 15.2625Z" fill="#291501"/>
<path d="M64.9728 17.3844C65.0207 20.6571 62.658 22.0663 60.1253 23.5767C58.2595 24.6896 56.2845 25.8669 55.4959 27.9203L53.806 27.2745C54.8231 24.6312 57.0716 23.2899 59.1955 22.0227C61.2644 20.7887 63.1949 19.6373 63.1617 17.4063L64.9728 17.3844Z" fill="#291501"/>
<path d="M46.902 33.4225C47.9025 34.0448 48.5736 35.0053 48.8533 36.0703C49.1427 37.1736 49.0128 38.3851 48.3941 39.4448L48.3348 39.5476L48.3296 39.5529C47.7073 40.5525 46.746 41.2236 45.6819 41.5033C44.5795 41.7927 43.3672 41.6628 42.3073 41.044L42.2045 40.9839L42.1993 40.9787C41.1988 40.3564 40.5277 39.3952 40.248 38.3311C39.9787 37.3061 40.0728 36.1871 40.5835 35.184V35.1691L40.7081 34.9565C41.3269 33.8967 42.3187 33.1873 43.4203 32.898C44.4452 32.6287 45.5643 32.7219 46.5673 33.2335H46.7137L46.902 33.4225ZM47.0999 36.5321C46.9291 35.882 46.5099 35.2964 45.8815 34.9285L45.8789 34.9268C45.2496 34.5591 44.5324 34.4815 43.8813 34.6523C43.2329 34.8223 42.6491 35.2397 42.2812 35.8645L42.276 35.8733C41.9083 36.5025 41.8307 37.2207 42.0015 37.8708C42.1723 38.5219 42.5932 39.1084 43.2225 39.4761L43.2303 39.4805C43.8579 39.844 44.5716 39.9207 45.22 39.7507C45.8711 39.5799 46.4576 39.1589 46.8253 38.5297L46.834 38.5149C47.194 37.8892 47.2689 37.1771 47.0999 36.5321Z" fill="#291501"/>
<path fill-rule="evenodd" clip-rule="evenodd" d="M45.8143 35.8755C45.8012 35.6793 45.6792 35.4903 45.4509 35.3551C45.2217 35.22 44.9305 35.1643 44.6448 35.1843C44.358 35.2044 44.0765 35.2985 43.8683 35.464C43.6591 35.6296 43.5623 35.8336 43.5753 36.0297C43.5884 36.2267 43.7105 36.4149 43.9388 36.55C44.168 36.6851 44.4591 36.74 44.7449 36.7208C45.0308 36.7008 45.3132 36.6057 45.5215 36.4411C45.7307 36.2755 45.8273 36.0715 45.8143 35.8755Z" fill="white"/>
<path fill-rule="evenodd" clip-rule="evenodd" d="M44.8677 43.1454C44.8547 42.9492 44.7327 42.7602 44.5043 42.625C44.2751 42.4899 43.984 42.4341 43.6981 42.4541C43.4113 42.4743 43.1299 42.5683 42.9216 42.7339C42.7124 42.8995 42.6157 43.1035 42.6288 43.2996C42.6419 43.4966 42.7639 43.6848 42.9921 43.8199C43.2215 43.9549 43.5125 44.0107 43.7984 43.9907C44.0843 43.9707 44.3665 43.8756 44.5749 43.7109C44.784 43.5453 44.8808 43.3414 44.8677 43.1454Z" fill="white"/>
<path fill-rule="evenodd" clip-rule="evenodd" d="M51.2896 40.352C51.2765 40.1559 51.1545 39.9668 50.9261 39.8317C50.6969 39.6965 50.4059 39.6408 50.12 39.6609C49.8333 39.6809 49.5517 39.7751 49.3435 39.9407C49.1343 40.1063 49.0376 40.3101 49.0507 40.5063C49.0637 40.7032 49.1857 40.8915 49.4141 41.0265C49.6433 41.1616 49.9344 41.2175 50.2203 41.1973C50.5061 41.1773 50.7884 41.0823 50.9968 40.9176C51.2059 40.752 51.3027 40.5481 51.2896 40.352Z" fill="white"/>
<path d="M205.173 42.0007V25.1527H208.657L214.455 33.1607C215.391 34.4347 216.457 36.2547 216.457 36.2547V25.1527H220.097V42.0007H216.587L210.971 34.3047C209.853 32.7967 208.813 31.0027 208.813 31.0027V42.0007H205.173Z" fill="#8B7452"/>
<path d="M188.437 42.2865C183.237 42.2865 179.52 38.4125 179.52 33.5765C179.52 28.7665 183.212 24.8925 188.412 24.8925C190.777 24.8925 192.857 25.7245 194.392 27.0505L192.129 29.5205C190.96 28.4805 189.764 28.1945 188.489 28.1945C185.552 28.1945 183.316 30.5865 183.316 33.5765C183.316 36.5925 185.5 38.9845 188.489 38.9845C190.101 38.9845 191.453 38.2565 192.364 37.2945V34.8245H189.504V32.1725H195.692V38.7245C194.209 40.9345 191.48 42.2865 188.437 42.2865Z" fill="#8B7452"/>
<path d="M166.896 42.0004V25.1524H170.536V42.0004H166.896Z" fill="#8B7452"/>
<path d="M150.924 42.2865C146.895 42.2865 144.996 40.7525 144.06 39.9985L145.387 37.1905C146.739 38.1785 148.351 39.0365 150.924 39.0365C152.328 39.0365 154.044 38.3865 154.044 37.0605C154.044 35.7605 152.536 35.4225 151.055 35.0585C147.908 34.3305 144.659 33.2645 144.659 29.7545C144.659 26.5045 147.7 24.8925 150.924 24.8925C153.472 24.8925 155.396 25.5685 157.087 26.6865L155.76 29.4945C154.408 28.6105 152.64 28.1425 150.924 28.1425C150.04 28.1425 148.376 28.4805 148.376 29.7545C148.376 30.8465 149.599 31.2365 151.263 31.6265C154.252 32.3285 157.84 33.4465 157.84 37.0605C157.84 40.7005 154.304 42.2865 150.924 42.2865Z" fill="#8B7452"/>
<path d="M122.652 42.0004V25.1524H135.835V28.2724H126.292V31.7044H135.34V34.7984H126.292V38.8804H136.199V42.0004H122.652Z" fill="#8B7452"/>
<path d="M97.9024 42.0004V25.1524H104.662C110.2 25.1524 113.684 28.9744 113.684 33.5764C113.684 38.1784 110.2 42.0004 104.662 42.0004H97.9024ZM101.542 38.8804H104.506C107.73 38.8804 109.862 36.6444 109.862 33.5764C109.862 30.5344 107.73 28.2724 104.506 28.2724H101.542V38.8804Z" fill="#8B7452"/>
<path d="M188.805 64.0005V53.6325H196.917V55.5525H191.045V57.6645H196.613V59.5685H191.045V62.0805H197.141V64.0005H188.805Z" fill="#8B7452"/>
<path d="M175.231 64.0005V53.6325H183.343V55.5525H177.471V57.6645H183.039V59.5685H177.471V62.0805H183.567V64.0005H175.231Z" fill="#8B7452"/>
<path d="M162.437 64.0005V53.6325H170.197V55.5525H164.677V57.6645H169.381V59.5685H164.677V64.0005H162.437Z" fill="#8B7452"/>
<path d="M149.644 64.0005V53.6325H157.404V55.5525H151.884V57.6645H156.588V59.5685H151.884V64.0005H149.644Z" fill="#8B7452"/>
<path d="M138.643 64.1769C135.443 64.1769 133.154 61.7929 133.154 58.8169C133.154 55.8569 135.443 53.4729 138.643 53.4729C141.843 53.4729 144.131 55.8569 144.131 58.8169C144.131 61.7929 141.843 64.1769 138.643 64.1769ZM138.659 62.1449C140.467 62.1449 141.795 60.6729 141.795 58.8169C141.795 56.9769 140.467 55.5049 138.659 55.5049C136.851 55.5049 135.491 56.9769 135.491 58.8169C135.491 60.6729 136.835 62.1449 138.659 62.1449Z" fill="#8B7452"/>
<path d="M124.615 64.1767C121.415 64.1767 119.143 61.7927 119.143 58.8007C119.143 55.8567 121.415 53.4727 124.615 53.4727C126.039 53.4727 127.319 53.9527 128.247 54.7847L126.871 56.2887C126.167 55.6807 125.447 55.5047 124.743 55.5047C122.855 55.5047 121.479 56.9767 121.479 58.8007C121.479 60.6567 122.823 62.1447 124.663 62.1447C125.623 62.1447 126.503 61.7767 127.143 61.0727L128.535 62.6407C127.543 63.6007 126.199 64.1767 124.615 64.1767Z" fill="#8B7452"/>
</svg>
