<svg width="240" height="80" viewBox="0 0 240 80" fill="none" xmlns="http://www.w3.org/2000/svg">
<path d="M42.8966 47.7654C43.1584 47.3372 43.7176 47.2022 44.1444 47.4627C44.5726 47.7245 44.7076 48.2836 44.4472 48.7119C43.5389 50.1956 42.3961 51.9781 41.005 53.9132C39.614 55.8484 37.987 57.92 36.1228 59.967C32.9302 63.4705 27.9211 67.5235 22.5902 70.4761C18.1853 72.9158 13.5376 74.6151 9.46404 74.6601C8.96354 74.6642 8.55442 74.2605 8.55032 73.76C8.54623 73.2595 8.9499 72.8504 9.4504 72.8463C13.1898 72.8054 17.5402 71.1989 21.7079 68.89C26.8615 66.0357 31.7001 62.1231 34.7781 58.7437C36.6069 56.7376 38.1875 54.7247 39.5322 52.8536C40.8769 50.9825 41.9979 49.2314 42.8966 47.7654Z" fill="white"/>
<path d="M41.2518 53.5601C40.9245 53.9392 40.3504 53.9802 39.9712 53.6529C39.5921 53.3256 39.5512 52.7514 39.8785 52.3723C51.375 39.0606 59.7362 42.5478 68.4861 46.1972C72.9715 48.0683 77.566 49.9843 82.6883 49.4388C83.1874 49.3857 83.6347 49.7471 83.6879 50.2462C83.7111 50.4698 83.6524 50.6826 83.5352 50.8544C68.6361 72.6732 57.3183 66.8963 48.0106 62.1436C43.6452 59.9152 39.7599 57.931 36.3873 59.5743C35.9359 59.7939 35.3904 59.6057 35.1708 59.1543C34.9513 58.7029 35.1395 58.1573 35.5909 57.9378C39.779 55.8976 44.0448 58.0742 48.8357 60.5207C57.2801 64.8316 67.5014 70.0452 80.9658 51.3508C76.179 51.374 71.9391 49.6066 67.7892 47.876C59.6585 44.4857 51.8878 41.244 41.2518 53.5601Z" fill="white"/>
<path d="M46.235 40.61C47.3274 41.2482 48.0583 42.2697 48.357 43.4057C48.6557 44.5417 48.5207 45.7909 47.8838 46.8833C47.2456 47.9756 46.2241 48.7066 45.0881 49.0053C44.0298 49.2835 42.8733 49.1853 41.8382 48.6562H41.8232L41.6105 48.5321C40.5181 47.8938 39.7872 46.8724 39.4885 45.7363C39.2103 44.6781 39.3085 43.5216 39.8376 42.4865V42.4715L39.9617 42.2588C40.6 41.1664 41.6214 40.4354 42.7574 40.1368C43.8934 39.8381 45.144 39.9717 46.2364 40.61H46.235ZM46.5991 43.868C46.4191 43.1834 45.9773 42.5683 45.3172 42.1824C44.6558 41.7964 43.9016 41.7146 43.2184 41.8933C42.5379 42.0719 41.9228 42.5111 41.5369 43.167L41.5314 43.1752C41.1455 43.8366 41.0636 44.5894 41.2423 45.2727C41.4223 45.9559 41.8642 46.5723 42.5242 46.9583C43.1843 47.3442 43.9384 47.426 44.6217 47.2474C45.3049 47.0674 45.9213 46.6269 46.3073 45.9655C46.6932 45.304 46.7751 44.5499 46.5964 43.8666L46.5991 43.868Z" fill="white"/>
<path d="M52.9075 37.3045C53.9685 37.9251 54.6804 38.9179 54.9695 40.0225C55.2395 41.0494 55.1454 42.1704 54.634 43.1755V43.1905L54.5099 43.4033C53.8894 44.4656 52.8966 45.1762 51.7919 45.4653C50.6873 45.7558 49.4722 45.6248 48.4112 45.0057C47.3488 44.3852 46.6383 43.391 46.3492 42.2877C46.0587 41.1831 46.1896 39.968 46.8101 38.907L46.821 38.8865L46.8237 38.881L46.8278 38.8742C47.4483 37.8296 48.433 37.13 49.5267 36.8436C50.6314 36.5531 51.8465 36.684 52.9075 37.3032V37.3045ZM53.2129 40.4848C53.0411 39.833 52.6197 39.2452 51.9897 38.877V38.8756L51.9665 38.8633H51.9651L51.9637 38.862C51.3391 38.5074 50.6314 38.4324 49.989 38.6015C49.3371 38.7733 48.7494 39.1947 48.3811 39.8248C48.0129 40.4562 47.9352 41.1749 48.1057 41.8268C48.2761 42.4759 48.6934 43.0596 49.3181 43.4292L49.329 43.436C49.959 43.8042 50.6777 43.882 51.3296 43.7115C51.9815 43.5396 52.5693 43.1182 52.9375 42.4882C53.3057 41.8568 53.3834 41.1381 53.2129 40.4862V40.4848Z" fill="white"/>
<path d="M83.3334 51.0648C76.6524 56.1462 70.4173 54.7756 63.7253 53.3041C56.0146 51.609 47.6616 49.772 37.4061 58.4946L36.2319 57.1076C47.1734 47.8027 55.9792 49.7393 64.1085 51.5258C70.3818 52.9045 76.2282 54.1906 82.237 49.6206L83.3321 51.0648H83.3334Z" fill="white"/>
<path d="M53.3113 50.0579C55.106 50.1139 59.1946 49.9066 62.6558 48.9206C64.7451 48.3246 66.5684 47.4614 67.3867 46.2285L68.9018 47.2309C67.8053 48.8824 65.6124 49.9679 63.1535 50.6689C59.4959 51.7108 55.1646 51.929 53.2622 51.8704L53.3113 50.0566V50.0579Z" fill="white"/>
<path d="M45.5956 51.4614C49.661 49.8999 54.6264 53.2166 59.5428 56.5005C64.5969 59.8772 69.5964 63.217 72.5857 60.4881L73.809 61.8328C69.7723 65.5177 64.1823 61.7837 58.5322 58.0088C54.0032 54.9826 49.4319 51.9292 46.242 53.1538L45.5942 51.4614H45.5956Z" fill="white"/>
<path d="M25.9188 66.3797C26.167 65.9788 26.4029 65.5601 26.6279 65.1264C29.6691 59.2486 29.6036 51.928 27.8403 45.4897C26.0824 39.0677 22.6635 33.565 18.9772 31.2847C18.789 31.1688 18.5926 31.057 18.3867 30.9506L19.2186 29.3359C19.4477 29.4546 19.6864 29.591 19.9305 29.741C23.989 32.253 27.7162 38.1676 29.59 45.0123C31.4597 51.8407 31.5115 59.64 28.2426 65.9583C28.0053 66.4152 27.7462 66.8748 27.4625 67.3316L25.9188 66.3783V66.3797Z" fill="white"/>
<path d="M29.3866 60.1841C29.8503 60.3723 30.0725 60.9014 29.8843 61.3651C29.6962 61.8288 29.167 62.0511 28.7033 61.8629C15.584 56.5046 17.1714 50.0091 18.842 43.1712C19.8553 39.024 20.9026 34.7363 18.0592 30.6628C17.7728 30.2523 17.8724 29.6863 18.2829 29.3999C18.5433 29.2186 18.8652 29.1913 19.1393 29.3018C25.0526 31.6706 29.1943 34.3954 32.0023 37.2702C35.1935 40.5364 36.6731 43.9963 37.07 47.3552C37.4655 50.6978 36.7822 53.923 35.649 56.7515C34.0029 60.8605 31.3886 64.1458 29.793 65.7046C29.4329 66.0537 28.8588 66.0455 28.5083 65.6868C28.1592 65.3268 28.166 64.7527 28.526 64.4022C30.003 62.9593 32.4264 59.91 33.962 56.0751C34.9944 53.4989 35.6176 50.5764 35.263 47.5679C34.9098 44.5758 33.5788 41.4815 30.6999 38.5358C28.4497 36.2324 25.2558 34.0176 20.8563 32.0088C22.4723 35.9405 21.5259 39.8218 20.6026 43.5967C19.1216 49.6586 17.7142 55.4164 29.3825 60.1827L29.3866 60.1841Z" fill="white"/>
<path d="M21.3687 40.1695C21.1123 42.8084 22.9289 44.288 24.9977 45.9736C27.3093 47.857 29.8963 49.964 30.8537 54.043L29.0822 54.4562C28.2653 50.9773 25.9346 49.0789 23.8521 47.3824C21.381 45.3695 19.2113 43.6021 19.5618 39.999L21.3687 40.1695Z" fill="white"/>
<path d="M33.0545 39.0745C32.0739 40.0523 31.4221 41.3779 31.0007 42.7716C30.4033 44.7436 30.2724 46.8247 30.3242 48.299L28.5104 48.3631C28.4532 46.7293 28.5977 44.4245 29.2578 42.2452C29.7569 40.5992 30.5506 39.0077 31.7739 37.7871L33.0545 39.0745Z" fill="white"/>
<path d="M60.1549 5.25341C60.1453 4.75291 60.5436 4.33833 61.0441 4.32878C61.5446 4.31924 61.9591 4.71745 61.9687 5.21795C62.1023 10.9812 60.8518 16.4049 58.5457 21.8408V21.8435C56.2586 27.2331 52.9379 32.6227 48.9039 38.3614C48.6148 38.7719 48.0488 38.8701 47.6383 38.5823C47.2278 38.2932 47.1296 37.7272 47.4174 37.3167C51.3846 31.6721 54.6453 26.3862 56.8751 21.133C59.0843 15.9275 60.2817 10.7439 60.1549 5.25341Z" fill="white"/>
<path d="M61.9357 4.9874C61.9862 5.15241 62.1758 5.74974 62.3735 6.37434C63.0418 8.48953 63.8232 10.9593 64.4001 13.5954C66.443 22.9317 65.8961 33.9864 49.0973 37.6603C48.6746 37.7517 48.2572 37.5335 48.0813 37.1571C41.5994 25.1574 46.0507 20.6733 52.2312 14.4505C54.8551 11.8076 57.8117 8.83183 60.287 4.76101C60.5488 4.33279 61.1079 4.19778 61.5348 4.45826C61.738 4.58236 61.8757 4.77329 61.9357 4.98603V4.9874ZM62.6204 13.98C62.1021 11.6125 61.3998 9.34051 60.7738 7.35625C58.4432 10.7725 55.8534 13.38 53.5173 15.7311C47.9899 21.2966 43.9819 25.3333 49.3796 35.7292C63.9977 32.2435 64.4519 22.3521 62.619 13.98H62.6204Z" fill="white"/>
<path d="M53.9941 15.2523C50.3024 18.7613 51.1657 21.5092 52.0862 24.4359C52.9549 27.1988 53.8659 30.1009 51.9567 33.8567L50.3351 33.0316C51.9089 29.9359 51.1111 27.3952 50.3515 24.9759C49.2578 21.4942 48.2309 18.2267 52.7435 13.9363L53.9955 15.2523H53.9941Z" fill="white"/>
<path d="M65.0301 17.3784C65.0778 20.6569 62.7117 22.0697 60.1737 23.5835C58.304 24.6991 56.3252 25.8787 55.5342 27.9353L53.8418 27.2875C54.8605 24.6391 57.1134 23.2944 59.2423 22.0261C61.3152 20.7892 63.249 19.6354 63.2163 17.4002L65.0301 17.3784Z" fill="white"/>
<path d="M46.925 33.4474C47.9273 34.0707 48.5997 35.0335 48.8806 36.0999C49.1711 37.2046 49.0401 38.4197 48.421 39.4807L48.361 39.583L48.3555 39.5884C47.7323 40.5908 46.7695 41.2631 45.703 41.5427C44.5984 41.8332 43.3833 41.7023 42.3223 41.0817L42.22 41.0217L42.2145 41.0163C41.2122 40.393 40.5398 39.4302 40.2589 38.3638C39.9889 37.3369 40.083 36.2159 40.5944 35.2108V35.1958L40.7185 34.983C41.339 33.9206 42.3318 33.2101 43.4365 32.921C44.4634 32.651 45.5844 32.7451 46.5895 33.2565H46.7354L46.925 33.4461V33.4474ZM47.1227 36.5622C46.9522 35.9104 46.5308 35.324 45.9021 34.9557H45.8994C45.2693 34.5862 44.5507 34.5071 43.8988 34.6789C43.2496 34.8494 42.6646 35.268 42.295 35.894L42.2895 35.9022C41.9213 36.5322 41.8436 37.2523 42.0141 37.9028C42.1859 38.5547 42.6073 39.1425 43.2374 39.5107L43.2455 39.5148C43.8742 39.8789 44.5902 39.9566 45.238 39.7862C45.8899 39.6143 46.4776 39.1929 46.8459 38.5629L46.854 38.5479C47.2154 37.9206 47.2904 37.2073 47.1213 36.5609L47.1227 36.5622Z" fill="white"/>
<path d="M205.171 42.0003V25.1523H208.655L214.453 33.1603C215.389 34.4343 216.455 36.2543 216.455 36.2543V25.1523H220.095V42.0003H216.585L210.969 34.3043C209.851 32.7963 208.811 31.0023 208.811 31.0023V42.0003H205.171Z" fill="white"/>
<path d="M188.436 42.2866C183.236 42.2866 179.518 38.4126 179.518 33.5766C179.518 28.7666 183.21 24.8926 188.41 24.8926C190.776 24.8926 192.856 25.7246 194.39 27.0506L192.128 29.5206C190.958 28.4806 189.762 28.1946 188.488 28.1946C185.55 28.1946 183.314 30.5866 183.314 33.5766C183.314 36.5926 185.498 38.9846 188.488 38.9846C190.1 38.9846 191.452 38.2566 192.362 37.2946V34.8246H189.502V32.1726H195.69V38.7246C194.208 40.9346 191.478 42.2866 188.436 42.2866Z" fill="white"/>
<path d="M166.894 42.0003V25.1523H170.534V42.0003H166.894Z" fill="white"/>
<path d="M150.923 42.2866C146.893 42.2866 144.995 40.7526 144.059 39.9986L145.385 37.1906C146.737 38.1786 148.349 39.0366 150.923 39.0366C152.327 39.0366 154.043 38.3866 154.043 37.0606C154.043 35.7606 152.535 35.4226 151.053 35.0586C147.907 34.3306 144.657 33.2646 144.657 29.7546C144.657 26.5046 147.699 24.8926 150.923 24.8926C153.471 24.8926 155.395 25.5686 157.085 26.6866L155.759 29.4946C154.407 28.6106 152.639 28.1426 150.923 28.1426C150.039 28.1426 148.375 28.4806 148.375 29.7546C148.375 30.8466 149.597 31.2366 151.261 31.6266C154.251 32.3286 157.839 33.4466 157.839 37.0606C157.839 40.7006 154.303 42.2866 150.923 42.2866Z" fill="white"/>
<path d="M122.651 42.0003V25.1523H135.833V28.2723H126.291V31.7043H135.339V34.7983H126.291V38.8803H136.197V42.0003H122.651Z" fill="white"/>
<path d="M97.9009 42.0003V25.1523H104.661C110.199 25.1523 113.683 28.9743 113.683 33.5763C113.683 38.1783 110.199 42.0003 104.661 42.0003H97.9009ZM101.541 38.8803H104.505C107.729 38.8803 109.861 36.6443 109.861 33.5763C109.861 30.5343 107.729 28.2723 104.505 28.2723H101.541V38.8803Z" fill="white"/>
<path d="M188.803 64.0006V53.6326H196.915V55.5526H191.043V57.6646H196.611V59.5686H191.043V62.0806H197.139V64.0006H188.803Z" fill="white"/>
<path d="M175.229 64.0006V53.6326H183.341V55.5526H177.469V57.6646H183.037V59.5686H177.469V62.0806H183.565V64.0006H175.229Z" fill="white"/>
<path d="M162.436 64.0006V53.6326H170.196V55.5526H164.676V57.6646H169.38V59.5686H164.676V64.0006H162.436Z" fill="white"/>
<path d="M149.643 64.0006V53.6326H157.403V55.5526H151.883V57.6646H156.587V59.5686H151.883V64.0006H149.643Z" fill="white"/>
<path d="M138.641 64.1769C135.441 64.1769 133.153 61.7929 133.153 58.8169C133.153 55.8569 135.441 53.4729 138.641 53.4729C141.841 53.4729 144.129 55.8569 144.129 58.8169C144.129 61.7929 141.841 64.1769 138.641 64.1769ZM138.657 62.1449C140.465 62.1449 141.793 60.6729 141.793 58.8169C141.793 56.9769 140.465 55.5049 138.657 55.5049C136.849 55.5049 135.489 56.9769 135.489 58.8169C135.489 60.6729 136.833 62.1449 138.657 62.1449Z" fill="white"/>
<path d="M124.614 64.1767C121.414 64.1767 119.142 61.7927 119.142 58.8007C119.142 55.8567 121.414 53.4727 124.614 53.4727C126.038 53.4727 127.318 53.9527 128.246 54.7847L126.87 56.2887C126.166 55.6807 125.446 55.5047 124.742 55.5047C122.854 55.5047 121.478 56.9767 121.478 58.8007C121.478 60.6567 122.822 62.1447 124.662 62.1447C125.622 62.1447 126.502 61.7767 127.142 61.0727L128.534 62.6407C127.542 63.6007 126.198 64.1767 124.614 64.1767Z" fill="white"/>
</svg>
